<svg xmlns="http://www.w3.org/2000/svg" fill="none" viewBox="0 0 24 24"><path fill="#ffffff" fill-rule="evenodd" d="M5 1C2.79086 1 1 2.79086 1 5V19C1 21.2091 2.79086 23 5 23H19C21.2091 23 23 21.2091 23 19V5C23 2.79086 21.2091 1 19 1H5ZM9.68182 7.27273C9.68182 5.46525 11.1471 4 12.9545 4H15.8636C16.0645 4 16.2273 4.16281 16.2273 4.36364V7.27273C16.2273 7.47356 16.0645 7.63636 15.8636 7.63636H14.4091C13.8066 7.63636 13.3182 8.12478 13.3182 8.72727V9.81818H15.8636C15.9756 9.81818 16.0813 9.86977 16.1503 9.95803C16.2192 10.0463 16.2436 10.1614 16.2164 10.27L15.4891 13.1791C15.4487 13.341 15.3032 13.4545 15.1364 13.4545H13.3182V19.6364C13.3182 19.8372 13.1554 20 12.9545 20H10.0455C9.84462 20 9.68182 19.8372 9.68182 19.6364V13.4545H7.86364C7.66281 13.4545 7.5 13.2917 7.5 13.0909V10.1818C7.5 9.98099 7.66281 9.81818 7.86364 9.81818H9.68182V7.27273Z" clip-rule="evenodd"></path></svg>