<svg xmlns="http://www.w3.org/2000/svg" fill="none" viewBox="0 0 24 24"><path fill="#ffffff" fill-rule="evenodd" d="M5 1C2.79086 1 1 2.79086 1 5V19C1 21.2091 2.79086 23 5 23H19C21.2091 23 23 21.2091 23 19V5C23 2.79086 21.2091 1 19 1H5ZM4.5 9C4.5 6.51472 6.51472 4.5 9 4.5H15C17.4853 4.5 19.5 6.51472 19.5 9V15C19.5 17.4853 17.4853 19.5 15 19.5H9C6.51472 19.5 4.5 17.4853 4.5 15V9ZM9 5.5C7.067 5.5 5.5 7.067 5.5 9V15C5.5 16.933 7.067 18.5 9 18.5H15C16.933 18.5 18.5 16.933 18.5 15V9C18.5 7.067 16.933 5.5 15 5.5H9ZM17 8.16667C17 8.6269 16.6269 9 16.1667 9C15.7064 9 15.3333 8.6269 15.3333 8.16667C15.3333 7.70643 15.7064 7.33333 16.1667 7.33333C16.6269 7.33333 17 7.70643 17 8.16667ZM8.16667 12C8.16667 9.88291 9.88291 8.16667 12 8.16667C14.1171 8.16667 15.8333 9.88291 15.8333 12C15.8333 14.1171 14.1171 15.8333 12 15.8333C9.88291 15.8333 8.16667 14.1171 8.16667 12ZM12 9.16667C10.4352 9.16667 9.16667 10.4352 9.16667 12C9.16667 13.5648 10.4352 14.8333 12 14.8333C13.5648 14.8333 14.8333 13.5648 14.8333 12C14.8333 10.4352 13.5648 9.16667 12 9.16667Z" clip-rule="evenodd"></path></svg>