<svg xmlns="http://www.w3.org/2000/svg" fill="none" viewBox="0 0 24 24"><path fill="#ffffff" fill-rule="evenodd" d="M5 1C2.79086 1 1 2.79086 1 5V19C1 21.2091 2.79086 23 5 23H19C21.2091 23 23 21.2091 23 19V5C23 2.79086 21.2091 1 19 1H5ZM12 4.70264C8.41015 4.70264 5.5 7.61279 5.5 11.2026C5.5 13.9436 7.1964 16.2875 9.59539 17.2433L11.3973 19.9728C11.6827 20.4053 12.3173 20.4053 12.6027 19.9728L14.4046 17.2433C16.8036 16.2875 18.5 13.9436 18.5 11.2026C18.5 7.61279 15.5899 4.70264 12 4.70264ZM14.8889 11.2026C14.8889 12.7981 13.5955 14.0915 12 14.0915C10.4045 14.0915 9.11111 12.7981 9.11111 11.2026C9.11111 9.60715 10.4045 8.31375 12 8.31375C13.5955 8.31375 14.8889 9.60715 14.8889 11.2026Z" clip-rule="evenodd"></path></svg>